<?xml version="1.0" encoding="utf-8"?>
<!-- Generator: Adobe Illustrator 16.0.4, SVG Export Plug-In . SVG Version: 6.00 Build 0)  -->
<!DOCTYPE svg PUBLIC "-//W3C//DTD SVG 1.1//EN" "http://www.w3.org/Graphics/SVG/1.1/DTD/svg11.dtd">
<svg version="1.1" id="Art" xmlns="http://www.w3.org/2000/svg" xmlns:xlink="http://www.w3.org/1999/xlink" x="0px" y="0px"
	 width="177px" height="37.1px" viewBox="0 0 177 37.1" enable-background="new 0 0 177 37.1" xml:space="preserve">
<g enable-background="new    ">
	<path d="M22.994,8.528c0.72-1.439,1.476-2.34,1.476-2.34V6.116c0,0-0.576,0.107-1.872,0.107H11.26V3.128h16.99v2.448L16.767,28.541
		h-3.671L22.994,8.528z"/>
	<path d="M31.024,26.598c0-9.071,12.454-10.367,12.454-16.343c0-2.52-1.908-4.211-4.571-4.211c-3.348,0-5.147,3.239-5.147,3.239
		L31.132,7.52c0,0,2.304-4.823,8.027-4.823c4.679,0,8.027,2.916,8.027,7.307c0,8.352-12.13,9.647-12.202,15.442h12.598v3.096H31.204
		C31.096,27.858,31.024,27.209,31.024,26.598z"/>
	<path d="M55.754,14.431c-1.656-1.188-2.844-2.735-2.844-5.075c0-3.384,2.556-6.659,7.919-6.659c4.715,0,7.991,2.628,7.991,6.803
		c0,3.384-2.7,6.264-3.023,6.624c1.944,1.188,3.456,2.771,3.456,5.398c0,3.96-3.42,7.451-8.711,7.451
		c-5.076,0-8.855-3.167-8.855-7.774C51.687,17.311,55.071,14.899,55.754,14.431z M58.382,15.943c-0.828,0.576-3.06,2.304-3.06,5.04
		c0,2.915,2.52,4.787,5.219,4.787c2.664,0,5.039-1.728,5.039-4.355C65.581,18.679,61.802,17.599,58.382,15.943z M63.098,14.719
		c0.396-0.396,2.231-2.34,2.231-5.003c0-2.34-1.872-3.816-4.535-3.816c-2.808,0-4.355,1.584-4.355,3.528
		C56.438,12.236,59.822,13.315,63.098,14.719z"/>
	<path d="M84.194,3.128h3.563v22.317h11.375v3.096H84.194V3.128z"/>
	<path d="M102.482,3.128h3.527v3.563h-3.527V3.128z M102.518,10.327h3.492v18.214h-3.492V10.327z"/>
	<path d="M118.105,33.076c3.167,0,5.759-1.403,5.759-5.111v-1.332c0-0.575,0.036-1.151,0.036-1.151h-0.072
		c-1.08,1.8-2.771,2.844-5.399,2.844c-5.075,0-8.135-4.067-8.135-9.323c0-5.219,2.915-9.106,7.955-9.106
		c4.392,0,5.724,2.699,5.724,2.699h0.071c0,0-0.036-0.252-0.036-0.575v-1.692h3.348v17.458c0,6.011-4.571,8.314-9.179,8.314
		c-2.196,0-4.464-0.611-6.228-1.512l1.152-2.735C113.102,31.853,115.369,33.076,118.105,33.076z M123.936,19.038
		c0-4.751-2.303-6.119-5.146-6.119c-3.168,0-4.968,2.304-4.968,6.012c0,3.779,2.017,6.371,5.292,6.371
		C121.633,25.302,123.936,23.79,123.936,19.038z"/>
	<path d="M132.83,3.128h3.49v9.323c0,0.863-0.071,1.512-0.071,1.512h0.071c0.793-1.764,3.096-4.067,6.732-4.067
		c4.283,0,6.263,2.34,6.263,6.983v11.662h-3.491V17.67c0-2.556-0.541-4.571-3.456-4.571c-2.735,0-5.003,1.872-5.759,4.5
		c-0.217,0.72-0.289,1.548-0.289,2.411v8.531h-3.49V3.128z"/>
	<path d="M155.293,13.387h-2.375v-2.808h2.483V5.324h3.384v5.255h4.391v2.808h-4.391v8.1c0,3.635,2.555,4.104,3.887,4.104
		c0.504,0,0.828-0.072,0.828-0.072v3.096c0,0-0.504,0.071-1.224,0.071c-2.34,0-6.983-0.72-6.983-6.803V13.387z"/>
</g>
</svg>
